<svg xmlns="http://www.w3.org/2000/svg" viewBox="0 0 880 300" width="880" height="300" font-family="'Courier New', ui-monospace, monospace" role="img" aria-label="Askcal — your inbox, ranked by regret.">
<defs>
<style>.px{opacity:1}.scan{opacity:0}.boot{opacity:1}</style>
</defs>
<rect x="4" y="4" width="872" height="292" rx="18" fill="#F5F0E6" stroke="#2A2724" stroke-width="4"/>
<g stroke="#CFC5AE" stroke-width="1">
<line x1="20" y1="60" x2="860" y2="60"/>
<line x1="20" y1="88" x2="860" y2="88"/>
<line x1="20" y1="116" x2="860" y2="116"/>
<line x1="20" y1="144" x2="860" y2="144"/>
<line x1="20" y1="172" x2="860" y2="172"/>
<line x1="20" y1="200" x2="860" y2="200"/>
<line x1="20" y1="228" x2="860" y2="228"/>
<line x1="20" y1="256" x2="860" y2="256"/>
</g>
<line x1="44" y1="20" x2="44" y2="280" stroke="#B4654A" stroke-width="2" opacity="0.7"/>
<path d="M 42 26 L 26 26 L 26 42" fill="none" stroke="#2A2724" stroke-width="3"/>
<path d="M 838 26 L 854 26 L 854 42" fill="none" stroke="#2A2724" stroke-width="3"/>
<path d="M 42 274 L 26 274 L 26 258" fill="none" stroke="#2A2724" stroke-width="3"/>
<path d="M 838 274 L 854 274 L 854 258" fill="none" stroke="#2A2724" stroke-width="3"/>
<text x="62" y="46" font-size="12" letter-spacing="3" fill="#6E675E">// ASKCAL &#183; GMAIL &#8594; YOUR DAY</text>
<circle class="odot" cx="690" cy="42" r="5" fill="#B4654A"/>
<text x="704" y="46" font-size="10" letter-spacing="3" fill="#6E675E">SYNCING</text>
<text class="boot d1" x="62" y="96" font-size="15" letter-spacing="1" fill="#6E675E">&#62; askcal today</text>
<text class="boot d1" x="60" y="152" font-size="58" font-weight="700" letter-spacing="1" fill="#2A2724">Askcal</text>
<text class="boot d2" x="63" y="186" font-size="19" font-weight="700" letter-spacing="1" fill="#2A2724">@lucenity0/askcal<tspan font-size="13" font-weight="400" fill="#6E675E" dx="14">iOS &#183; FastAPI</tspan></text>
<text class="boot d3" x="64" y="216" font-size="14" letter-spacing=".5" fill="#57514A">your inbox, ranked by regret.<tspan class="cursor" dx="6" fill="#2A2724">&#9608;</tspan></text>
<g class="boot d4">
<rect x="62" y="240" width="76" height="24" rx="3" fill="none" stroke="#2A2724" stroke-width="1.5"/>
<text x="100" y="256" font-size="11" letter-spacing="2" fill="#2A2724" text-anchor="middle">SWIFTUI</text>
</g>
<g class="boot d4">
<rect x="150" y="240" width="76" height="24" rx="3" fill="none" stroke="#2A2724" stroke-width="1.5"/>
<text x="188" y="256" font-size="11" letter-spacing="2" fill="#2A2724" text-anchor="middle">FASTAPI</text>
</g>
<g class="boot d4">
<rect x="238" y="240" width="68" height="24" rx="3" fill="none" stroke="#2A2724" stroke-width="1.5"/>
<text x="272" y="256" font-size="11" letter-spacing="2" fill="#2A2724" text-anchor="middle">CLAUDE</text>
</g>
<text x="560" y="58" font-size="10" letter-spacing="2" fill="#6E675E">// TODAY</text>
<text x="560" y="79" font-size="11" fill="#6E675E">09:00</text>
<circle cx="612" cy="74" r="9" fill="#2A2724" stroke="#2A2724" stroke-width="2"/>
<path d="M 608 74 L 611 77.5 L 616.5 70.5" fill="none" stroke="#F5F0E6" stroke-width="2" stroke-linecap="round" stroke-linejoin="round"/>
<text x="632" y="79" font-size="13" fill="#6E675E">assignment due</text>
<line x1="632" y1="75" x2="730" y2="75" stroke="#6E675E" stroke-width="1.2"/>
<text x="560" y="113" font-size="11" fill="#6E675E">11:30</text>
<circle cx="612" cy="108" r="9" fill="#2A2724" stroke="#2A2724" stroke-width="2"/>
<path d="M 608 108 L 611 111.5 L 616.5 104.5" fill="none" stroke="#F5F0E6" stroke-width="2" stroke-linecap="round" stroke-linejoin="round"/>
<text x="632" y="113" font-size="13" fill="#6E675E">reply to prof</text>
<line x1="632" y1="109" x2="723" y2="109" stroke="#6E675E" stroke-width="1.2"/>
<text x="560" y="147" font-size="11" fill="#6E675E">14:00</text>
<circle cx="612" cy="142" r="9" fill="none" stroke="#B3A98F" stroke-width="2"/>
<text x="632" y="147" font-size="13" fill="#2A2724">client brief</text>
<text x="560" y="181" font-size="11" fill="#6E675E">17:00</text>
<circle cx="612" cy="176" r="9" fill="none" stroke="#B3A98F" stroke-width="2"/>
<text x="632" y="181" font-size="13" fill="#2A2724">semester fees</text>
<text x="560" y="215" font-size="11" fill="#6E675E">21:00</text>
<circle cx="612" cy="210" r="9" fill="none" stroke="#B3A98F" stroke-width="2"/>
<text x="632" y="215" font-size="13" fill="#2A2724">close the day</text>
<text x="560" y="252" font-size="11" letter-spacing="1" fill="#6E675E">~ $ 3 done &#183; 1 moved on</text>
<rect x="26" y="150" width="828" height="2" fill="#2A2724" opacity="0.10"/>
</svg>